<svg width="91" height="96" viewBox="0 0 91 96" fill="none" xmlns="http://www.w3.org/2000/svg">
<circle cx="45.3334" cy="50.6664" r="45.3334" fill="#25E2CC"/>
<g clip-path="url(#clip0_4179_3515)">
<path d="M34.3044 46.4043C33.0272 46.4043 31.9919 47.4397 31.9919 48.7168V53.3418C31.9919 54.6189 33.0272 55.6543 34.3044 55.6543C35.5815 55.6543 36.6169 54.6189 36.6169 53.3418V48.7168C36.6169 47.4397 35.5815 46.4043 34.3044 46.4043Z" fill="#003D5B"/>
<path d="M57.4294 55.6543C58.7065 55.6543 59.7419 54.6189 59.7419 53.3418V48.7168C59.7419 47.4397 58.7065 46.4043 57.4294 46.4043C56.1523 46.4043 55.1169 47.4397 55.1169 48.7168V53.3418C55.1169 54.6189 56.1523 55.6543 57.4294 55.6543Z" fill="#003D5B"/>
<path d="M48.3335 16.3418H73.6169C74.894 16.3418 75.9294 15.3064 75.9294 14.0293C75.9294 12.7522 74.894 11.7168 73.6169 11.7168H48.3335C47.0564 11.7168 46.021 12.7522 46.021 14.0293C46.021 15.3064 47.0564 16.3418 48.3335 16.3418Z" fill="#003D5B"/>
<path d="M85.3336 27.1334V10.0209C85.3336 4.49535 80.8383 0 75.3128 0H46.6377C41.1122 0 36.6169 4.49535 36.6169 10.0209V27.9042H33.5335C25.081 27.9042 17.9921 33.8504 16.2275 41.7792H15.8043V27.5065C18.4959 26.5519 20.4293 23.9814 20.4293 20.9667C20.4293 17.1414 17.3172 14.0292 13.4918 14.0292C9.66648 14.0292 6.55431 17.1414 6.55431 20.9667C6.55431 23.9814 8.48772 26.5519 11.1793 27.5065V42.1247C8.40786 43.0345 6.40015 45.6448 6.40015 48.7167V57.9668C6.40015 61.7921 9.51231 64.9043 13.3377 64.9043H16.1939C17.9004 72.91 25.0263 78.9335 33.5335 78.9335H58.2002C66.7075 78.9335 73.8334 72.91 75.5398 64.9043H78.3961C82.2214 64.9043 85.3336 61.7921 85.3336 57.9668V48.7167C85.3336 44.8914 82.2214 41.7792 78.3961 41.7792H75.5053C75.146 40.1636 74.5626 38.6069 73.7714 37.1542H75.3128C80.8383 37.1542 85.3336 32.6589 85.3336 27.1334ZM41.2419 10.0209C41.2419 7.04558 43.6624 4.62501 46.6377 4.62501H75.3128C78.288 4.62501 80.7086 7.04558 80.7086 10.0209V27.1334C80.7086 30.1086 78.288 32.5292 75.3128 32.5292H48.1794C47.8203 32.5292 47.4664 32.6128 47.1452 32.7733L41.2419 35.7249V10.0209ZM13.4918 18.6542C14.7669 18.6542 15.8043 19.6916 15.8043 20.9667C15.8043 22.2418 14.7669 23.2792 13.4918 23.2792C12.2167 23.2792 11.1793 22.2418 11.1793 20.9667C11.1793 19.6916 12.2167 18.6542 13.4918 18.6542ZM11.0252 57.9668V48.7167C11.0252 47.4416 12.0625 46.4042 13.3377 46.4042H15.8043V60.2793H13.3377C12.0625 60.2793 11.0252 59.2419 11.0252 57.9668ZM80.7086 48.7167V57.9668C80.7086 59.2419 79.6712 60.2793 78.3961 60.2793H75.9294V46.4042H78.3961C79.6712 46.4042 80.7086 47.4416 80.7086 48.7167ZM71.3044 45.6334V61.2043C71.3044 68.4299 65.4259 74.3085 58.2002 74.3085H33.5335C26.3079 74.3085 20.4293 68.4299 20.4293 61.2043V45.6334C20.4293 38.4078 26.3079 32.5292 33.5335 32.5292H36.6169V39.4667C36.6169 41.1829 38.4271 42.3034 39.9635 41.535L48.7253 37.1542H68.1875C70.1975 39.5198 71.3044 42.5199 71.3044 45.6334Z" fill="#003D5B"/>
<path d="M48.3335 25.5918H73.6169C74.894 25.5918 75.9294 24.5564 75.9294 23.2793C75.9294 22.0022 74.894 20.9668 73.6169 20.9668H48.3335C47.0564 20.9668 46.021 22.0022 46.021 23.2793C46.021 24.5564 47.0564 25.5918 48.3335 25.5918Z" fill="#003D5B"/>
<path d="M38.9294 62.5918C38.9294 63.8689 39.9648 64.9043 41.2419 64.9043H50.4919C51.769 64.9043 52.8044 63.8689 52.8044 62.5918C52.8044 61.3147 51.769 60.2793 50.4919 60.2793H41.2419C39.9648 60.2793 38.9294 61.3147 38.9294 62.5918Z" fill="#003D5B"/>
</g>
<defs>
<clipPath id="clip0_4179_3515">
<rect width="78.9335" height="78.9335" fill="white" transform="translate(6.40015)"/>
</clipPath>
</defs>
</svg>
